<mxfile host="app.diagrams.net" modified="2023-08-21T09:24:27.669Z" agent="Mozilla/5.0 (X11; Linux x86_64) AppleWebKit/537.36 (KHTML, like Gecko) Chrome/116.0.0.0 Safari/537.36" etag="O7KzV34Z71_PIfAk5ZB7" version="21.6.6" type="github">
  <diagram id="C5RBs43oDa-KdzZeNtuy" name="Page-1">
    <mxGraphModel dx="2320" dy="807" grid="1" gridSize="10" guides="1" tooltips="1" connect="1" arrows="1" fold="1" page="1" pageScale="1" pageWidth="827" pageHeight="1169" math="0" shadow="0">
      <root>
        <mxCell id="WIyWlLk6GJQsqaUBKTNV-0" />
        <mxCell id="WIyWlLk6GJQsqaUBKTNV-1" parent="WIyWlLk6GJQsqaUBKTNV-0" />
        <mxCell id="iEYKKcenAd9etwI2gq5V-2" value="" style="edgeStyle=orthogonalEdgeStyle;rounded=0;orthogonalLoop=1;jettySize=auto;html=1;" edge="1" parent="WIyWlLk6GJQsqaUBKTNV-1" source="iEYKKcenAd9etwI2gq5V-0" target="iEYKKcenAd9etwI2gq5V-1">
          <mxGeometry relative="1" as="geometry" />
        </mxCell>
        <mxCell id="iEYKKcenAd9etwI2gq5V-0" value="Getting all uncopied decision from detection_results&amp;nbsp;" style="rounded=1;whiteSpace=wrap;html=1;fontSize=12;glass=0;strokeWidth=1;shadow=0;" vertex="1" parent="WIyWlLk6GJQsqaUBKTNV-1">
          <mxGeometry x="-550" y="180" width="180" height="60" as="geometry" />
        </mxCell>
        <mxCell id="iEYKKcenAd9etwI2gq5V-11" value="" style="edgeStyle=orthogonalEdgeStyle;rounded=0;orthogonalLoop=1;jettySize=auto;html=1;" edge="1" parent="WIyWlLk6GJQsqaUBKTNV-1" source="iEYKKcenAd9etwI2gq5V-1" target="iEYKKcenAd9etwI2gq5V-10">
          <mxGeometry relative="1" as="geometry" />
        </mxCell>
        <mxCell id="iEYKKcenAd9etwI2gq5V-1" value="Save new decision in live_txn_wrok" style="whiteSpace=wrap;html=1;rounded=1;glass=0;strokeWidth=1;shadow=0;" vertex="1" parent="WIyWlLk6GJQsqaUBKTNV-1">
          <mxGeometry x="-260" y="180" width="190" height="60" as="geometry" />
        </mxCell>
        <mxCell id="iEYKKcenAd9etwI2gq5V-6" value="" style="edgeStyle=orthogonalEdgeStyle;rounded=0;orthogonalLoop=1;jettySize=auto;html=1;" edge="1" parent="WIyWlLk6GJQsqaUBKTNV-1" source="iEYKKcenAd9etwI2gq5V-5" target="iEYKKcenAd9etwI2gq5V-0">
          <mxGeometry relative="1" as="geometry" />
        </mxCell>
        <mxCell id="iEYKKcenAd9etwI2gq5V-5" value="Sheduler for to get new decisions" style="html=1;dashed=0;whiteSpace=wrap;shape=mxgraph.dfd.start" vertex="1" parent="WIyWlLk6GJQsqaUBKTNV-1">
          <mxGeometry x="-760" y="187.5" width="120" height="45" as="geometry" />
        </mxCell>
        <mxCell id="iEYKKcenAd9etwI2gq5V-10" value="Process end" style="html=1;dashed=0;whiteSpace=wrap;shape=mxgraph.dfd.start" vertex="1" parent="WIyWlLk6GJQsqaUBKTNV-1">
          <mxGeometry x="30" y="187.5" width="120" height="45" as="geometry" />
        </mxCell>
        <mxCell id="iEYKKcenAd9etwI2gq5V-14" value="Sheduler for creating decision works" style="text;strokeColor=none;fillColor=none;html=1;fontSize=24;fontStyle=1;verticalAlign=middle;align=center;" vertex="1" parent="WIyWlLk6GJQsqaUBKTNV-1">
          <mxGeometry x="-370" y="80" width="100" height="40" as="geometry" />
        </mxCell>
        <mxCell id="iEYKKcenAd9etwI2gq5V-19" value="" style="edgeStyle=orthogonalEdgeStyle;rounded=0;orthogonalLoop=1;jettySize=auto;html=1;" edge="1" parent="WIyWlLk6GJQsqaUBKTNV-1" source="iEYKKcenAd9etwI2gq5V-17" target="iEYKKcenAd9etwI2gq5V-18">
          <mxGeometry relative="1" as="geometry" />
        </mxCell>
        <mxCell id="iEYKKcenAd9etwI2gq5V-17" value="User log into panel" style="html=1;dashed=0;whiteSpace=wrap;shape=mxgraph.dfd.start" vertex="1" parent="WIyWlLk6GJQsqaUBKTNV-1">
          <mxGeometry x="-760" y="786.25" width="120" height="45" as="geometry" />
        </mxCell>
        <mxCell id="iEYKKcenAd9etwI2gq5V-21" value="" style="edgeStyle=orthogonalEdgeStyle;rounded=0;orthogonalLoop=1;jettySize=auto;html=1;" edge="1" parent="WIyWlLk6GJQsqaUBKTNV-1" source="iEYKKcenAd9etwI2gq5V-18" target="iEYKKcenAd9etwI2gq5V-20">
          <mxGeometry relative="1" as="geometry" />
        </mxCell>
        <mxCell id="iEYKKcenAd9etwI2gq5V-22" value="Failed" style="edgeLabel;html=1;align=center;verticalAlign=middle;resizable=0;points=[];" vertex="1" connectable="0" parent="iEYKKcenAd9etwI2gq5V-21">
          <mxGeometry x="-0.3694" y="-1" relative="1" as="geometry">
            <mxPoint as="offset" />
          </mxGeometry>
        </mxCell>
        <mxCell id="iEYKKcenAd9etwI2gq5V-29" value="" style="edgeStyle=orthogonalEdgeStyle;rounded=0;orthogonalLoop=1;jettySize=auto;html=1;" edge="1" parent="WIyWlLk6GJQsqaUBKTNV-1" source="iEYKKcenAd9etwI2gq5V-18" target="iEYKKcenAd9etwI2gq5V-28">
          <mxGeometry relative="1" as="geometry" />
        </mxCell>
        <mxCell id="iEYKKcenAd9etwI2gq5V-18" value="Validting &lt;br&gt;user roles&lt;br&gt;with user_id" style="rhombus;whiteSpace=wrap;html=1;dashed=0;" vertex="1" parent="WIyWlLk6GJQsqaUBKTNV-1">
          <mxGeometry x="-550" y="738.75" width="140" height="140" as="geometry" />
        </mxCell>
        <mxCell id="iEYKKcenAd9etwI2gq5V-20" value="Throw user login failiure message" style="html=1;dashed=0;whiteSpace=wrap;shape=mxgraph.dfd.start" vertex="1" parent="WIyWlLk6GJQsqaUBKTNV-1">
          <mxGeometry x="-550" y="961.25" width="138.75" height="52.03" as="geometry" />
        </mxCell>
        <mxCell id="iEYKKcenAd9etwI2gq5V-27" value="Get new decision work from&amp;nbsp;&lt;br&gt;live_txn_work" style="whiteSpace=wrap;html=1;rounded=1;glass=0;strokeWidth=1;shadow=0;" vertex="1" parent="WIyWlLk6GJQsqaUBKTNV-1">
          <mxGeometry x="-367.5" y="585" width="190" height="60" as="geometry" />
        </mxCell>
        <mxCell id="iEYKKcenAd9etwI2gq5V-30" value="" style="edgeStyle=orthogonalEdgeStyle;rounded=0;orthogonalLoop=1;jettySize=auto;html=1;strokeColor=default;" edge="1" parent="WIyWlLk6GJQsqaUBKTNV-1" source="iEYKKcenAd9etwI2gq5V-28" target="iEYKKcenAd9etwI2gq5V-27">
          <mxGeometry relative="1" as="geometry" />
        </mxCell>
        <mxCell id="iEYKKcenAd9etwI2gq5V-31" value="Failed" style="edgeLabel;html=1;align=center;verticalAlign=middle;resizable=0;points=[];" vertex="1" connectable="0" parent="iEYKKcenAd9etwI2gq5V-30">
          <mxGeometry x="-0.088" relative="1" as="geometry">
            <mxPoint as="offset" />
          </mxGeometry>
        </mxCell>
        <mxCell id="iEYKKcenAd9etwI2gq5V-38" value="" style="edgeStyle=orthogonalEdgeStyle;rounded=0;orthogonalLoop=1;jettySize=auto;html=1;" edge="1" parent="WIyWlLk6GJQsqaUBKTNV-1" source="iEYKKcenAd9etwI2gq5V-28" target="iEYKKcenAd9etwI2gq5V-37">
          <mxGeometry relative="1" as="geometry" />
        </mxCell>
        <mxCell id="iEYKKcenAd9etwI2gq5V-28" value="&lt;font style=&quot;font-size: 10px;&quot;&gt;Loading &lt;br&gt;Decision List from&amp;nbsp;&lt;br&gt;live_txn_work_assign&lt;br&gt;&lt;br&gt;&lt;/font&gt;" style="rhombus;whiteSpace=wrap;html=1;dashed=0;" vertex="1" parent="WIyWlLk6GJQsqaUBKTNV-1">
          <mxGeometry x="-342.5" y="738.75" width="140" height="140" as="geometry" />
        </mxCell>
        <mxCell id="iEYKKcenAd9etwI2gq5V-40" value="" style="edgeStyle=orthogonalEdgeStyle;rounded=0;orthogonalLoop=1;jettySize=auto;html=1;" edge="1" parent="WIyWlLk6GJQsqaUBKTNV-1" source="iEYKKcenAd9etwI2gq5V-37" target="iEYKKcenAd9etwI2gq5V-39">
          <mxGeometry relative="1" as="geometry" />
        </mxCell>
        <mxCell id="iEYKKcenAd9etwI2gq5V-37" value="Listing all suggestions from&amp;nbsp;&lt;br&gt;store teams and product teams." style="whiteSpace=wrap;html=1;rounded=1;glass=0;strokeWidth=1;shadow=0;" vertex="1" parent="WIyWlLk6GJQsqaUBKTNV-1">
          <mxGeometry x="-120" y="778.75" width="190" height="60" as="geometry" />
        </mxCell>
        <mxCell id="iEYKKcenAd9etwI2gq5V-44" value="" style="edgeStyle=orthogonalEdgeStyle;rounded=0;orthogonalLoop=1;jettySize=auto;html=1;" edge="1" parent="WIyWlLk6GJQsqaUBKTNV-1" source="iEYKKcenAd9etwI2gq5V-39" target="iEYKKcenAd9etwI2gq5V-43">
          <mxGeometry relative="1" as="geometry" />
        </mxCell>
        <mxCell id="iEYKKcenAd9etwI2gq5V-45" value="Accept" style="edgeLabel;html=1;align=center;verticalAlign=middle;resizable=0;points=[];" vertex="1" connectable="0" parent="iEYKKcenAd9etwI2gq5V-44">
          <mxGeometry x="-0.1397" relative="1" as="geometry">
            <mxPoint as="offset" />
          </mxGeometry>
        </mxCell>
        <mxCell id="iEYKKcenAd9etwI2gq5V-47" value="" style="edgeStyle=orthogonalEdgeStyle;rounded=0;orthogonalLoop=1;jettySize=auto;html=1;" edge="1" parent="WIyWlLk6GJQsqaUBKTNV-1" source="iEYKKcenAd9etwI2gq5V-39">
          <mxGeometry relative="1" as="geometry">
            <mxPoint x="390" y="808.75" as="targetPoint" />
          </mxGeometry>
        </mxCell>
        <mxCell id="iEYKKcenAd9etwI2gq5V-39" value="Checking &lt;br&gt;Decision valid or not" style="rhombus;whiteSpace=wrap;html=1;dashed=0;" vertex="1" parent="WIyWlLk6GJQsqaUBKTNV-1">
          <mxGeometry x="150" y="738.75" width="140" height="140" as="geometry" />
        </mxCell>
        <mxCell id="iEYKKcenAd9etwI2gq5V-43" value="Updating the decision as accepted and keep in localstorage and database as well." style="whiteSpace=wrap;html=1;rounded=1;glass=0;strokeWidth=1;shadow=0;" vertex="1" parent="WIyWlLk6GJQsqaUBKTNV-1">
          <mxGeometry x="125" y="970" width="190" height="60" as="geometry" />
        </mxCell>
        <mxCell id="iEYKKcenAd9etwI2gq5V-50" value="" style="edgeStyle=orthogonalEdgeStyle;rounded=0;orthogonalLoop=1;jettySize=auto;html=1;" edge="1" parent="WIyWlLk6GJQsqaUBKTNV-1" source="iEYKKcenAd9etwI2gq5V-48" target="iEYKKcenAd9etwI2gq5V-49">
          <mxGeometry relative="1" as="geometry" />
        </mxCell>
        <mxCell id="iEYKKcenAd9etwI2gq5V-53" value="" style="edgeStyle=orthogonalEdgeStyle;rounded=0;orthogonalLoop=1;jettySize=auto;html=1;" edge="1" parent="WIyWlLk6GJQsqaUBKTNV-1" source="iEYKKcenAd9etwI2gq5V-48" target="iEYKKcenAd9etwI2gq5V-52">
          <mxGeometry relative="1" as="geometry" />
        </mxCell>
        <mxCell id="iEYKKcenAd9etwI2gq5V-48" value="If sorter know&amp;nbsp;&lt;br&gt;the correct sku_id" style="rhombus;whiteSpace=wrap;html=1;dashed=0;" vertex="1" parent="WIyWlLk6GJQsqaUBKTNV-1">
          <mxGeometry x="390" y="738.75" width="140" height="140" as="geometry" />
        </mxCell>
        <mxCell id="iEYKKcenAd9etwI2gq5V-51" value="" style="edgeStyle=orthogonalEdgeStyle;rounded=0;orthogonalLoop=1;jettySize=auto;html=1;" edge="1" parent="WIyWlLk6GJQsqaUBKTNV-1" source="iEYKKcenAd9etwI2gq5V-49" target="iEYKKcenAd9etwI2gq5V-43">
          <mxGeometry relative="1" as="geometry" />
        </mxCell>
        <mxCell id="iEYKKcenAd9etwI2gq5V-49" value="Update the sku_id and accept it" style="whiteSpace=wrap;html=1;rounded=1;glass=0;strokeWidth=1;shadow=0;" vertex="1" parent="WIyWlLk6GJQsqaUBKTNV-1">
          <mxGeometry x="365" y="970" width="190" height="60" as="geometry" />
        </mxCell>
        <mxCell id="iEYKKcenAd9etwI2gq5V-52" value="Updating the decision as rejected" style="whiteSpace=wrap;html=1;rounded=1;glass=0;strokeWidth=1;shadow=0;" vertex="1" parent="WIyWlLk6GJQsqaUBKTNV-1">
          <mxGeometry x="615" y="778.75" width="190" height="60" as="geometry" />
        </mxCell>
      </root>
    </mxGraphModel>
  </diagram>
</mxfile>
